<?xml version="1.0" standalone="no"?><!-- Generator: Gravit.io --><svg xmlns="http://www.w3.org/2000/svg" xmlns:xlink="http://www.w3.org/1999/xlink" style="isolation:isolate" viewBox="0 0 435.159 207.588" width="435.159" height="207.588"><defs><clipPath id="_clipPath_FR9l7vUEJUbkpo84o14sUEXi2JQGChEy"><rect width="435.159" height="207.588"/></clipPath></defs><g clip-path="url(#_clipPath_FR9l7vUEJUbkpo84o14sUEXi2JQGChEy)"><path d=" M 82.005 56.751 L 82.005 162.649 L 48.533 162.649 L 48.533 56.751 L 15.482 56.751 L 15.482 41.238 L 115.056 41.238 L 115.056 56.751 L 82.005 56.751 Z  M 158.814 50.006 L 158.814 162.649 L 130.317 162.649 L 130.317 20.412 L 141.277 20.412 L 158.814 50.006 Z  M 285.453 113.747 L 285.453 113.747 L 285.453 113.747 Q 285.453 121.335 283.429 127.996 L 283.429 127.996 L 283.429 127.996 Q 281.406 134.657 277.822 140.306 L 277.822 140.306 L 277.822 140.306 Q 274.239 145.955 269.18 150.465 L 269.18 150.465 L 269.18 150.465 Q 264.122 154.976 258.093 158.096 L 258.093 158.096 L 258.093 158.096 Q 252.065 161.215 245.193 162.902 L 245.193 162.902 L 245.193 162.902 Q 238.322 164.588 231.071 164.588 L 231.071 164.588 L 231.071 164.588 Q 223.82 164.588 216.99 162.902 L 216.99 162.902 L 216.99 162.902 Q 210.161 161.215 204.133 158.096 L 204.133 158.096 L 204.133 158.096 Q 198.104 154.976 193.046 150.465 L 193.046 150.465 L 193.046 150.465 Q 187.987 145.955 184.403 140.306 L 184.403 140.306 L 184.403 140.306 Q 180.82 134.657 178.797 127.954 L 178.797 127.954 L 178.797 127.954 Q 176.773 121.251 176.773 113.747 L 176.773 113.747 L 176.773 113.747 Q 176.773 106.243 178.797 99.54 L 178.797 99.54 L 178.797 99.54 Q 180.82 92.837 184.403 87.188 L 184.403 87.188 L 184.403 87.188 Q 187.987 81.539 193.046 77.029 L 193.046 77.029 L 193.046 77.029 Q 198.104 72.518 204.133 69.398 L 204.133 69.398 L 204.133 69.398 Q 210.161 66.279 216.99 64.592 L 216.99 64.592 L 216.99 64.592 Q 223.82 62.906 231.071 62.906 L 231.071 62.906 L 231.071 62.906 Q 238.322 62.906 245.193 64.592 L 245.193 64.592 L 245.193 64.592 Q 252.065 66.279 258.093 69.398 L 258.093 69.398 L 258.093 69.398 Q 264.122 72.518 269.18 77.029 L 269.18 77.029 L 269.18 77.029 Q 274.239 81.539 277.822 87.188 L 277.822 87.188 L 277.822 87.188 Q 281.406 92.837 283.429 99.54 L 283.429 99.54 L 283.429 99.54 Q 285.453 106.243 285.453 113.747 Z  M 256.449 113.747 L 256.449 113.747 L 256.449 113.747 Q 256.449 109.7 255.985 105.189 L 255.985 105.189 L 255.985 105.189 Q 255.522 100.679 254.426 96.336 L 254.426 96.336 L 254.426 96.336 Q 253.329 91.994 251.432 87.989 L 251.432 87.989 L 251.432 87.989 Q 249.535 83.985 246.753 80.991 L 246.753 80.991 L 246.753 80.991 Q 243.971 77.998 240.092 76.186 L 240.092 76.186 L 240.092 76.186 Q 236.214 74.373 231.071 74.373 L 231.071 74.373 L 231.071 74.373 Q 226.181 74.373 222.387 76.228 L 222.387 76.228 L 222.387 76.228 Q 218.592 78.083 215.768 81.16 L 215.768 81.16 L 215.768 81.16 Q 212.943 84.237 211.046 88.284 L 211.046 88.284 L 211.046 88.284 Q 209.149 92.332 207.969 96.674 L 207.969 96.674 L 207.969 96.674 Q 206.789 101.016 206.283 105.442 L 206.283 105.442 L 206.283 105.442 Q 205.777 109.869 205.777 113.747 L 205.777 113.747 L 205.777 113.747 Q 205.777 117.625 206.283 122.052 L 206.283 122.052 L 206.283 122.052 Q 206.789 126.478 207.969 130.863 L 207.969 130.863 L 207.969 130.863 Q 209.149 135.247 211.046 139.252 L 211.046 139.252 L 211.046 139.252 Q 212.943 143.257 215.768 146.334 L 215.768 146.334 L 215.768 146.334 Q 218.592 149.412 222.387 151.266 L 222.387 151.266 L 222.387 151.266 Q 226.181 153.121 231.071 153.121 L 231.071 153.121 L 231.071 153.121 Q 236.13 153.121 240.008 151.309 L 240.008 151.309 L 240.008 151.309 Q 243.886 149.496 246.711 146.461 L 246.711 146.461 L 246.711 146.461 Q 249.535 143.425 251.39 139.463 L 251.39 139.463 L 251.39 139.463 Q 253.245 135.5 254.383 131.116 L 254.383 131.116 L 254.383 131.116 Q 255.522 126.731 255.985 122.263 L 255.985 122.263 L 255.985 122.263 Q 256.449 117.794 256.449 113.747 Z  M 401.468 65.267 L 401.468 150.929 L 401.468 150.929 Q 401.468 162.564 398.011 172.851 L 398.011 172.851 L 398.011 172.851 Q 394.554 183.137 387.978 190.851 L 387.978 190.851 L 387.978 190.851 Q 381.401 198.566 371.832 203.077 L 371.832 203.077 L 371.832 203.077 Q 362.262 207.588 350.037 207.588 L 350.037 207.588 L 350.037 207.588 Q 343.292 207.588 336.42 206.07 L 336.42 206.07 L 336.42 206.07 Q 329.549 204.552 323.436 201.391 L 323.436 201.391 L 323.436 201.391 Q 317.323 198.229 312.475 193.381 L 312.475 193.381 L 312.475 193.381 Q 307.627 188.533 304.845 181.956 L 304.845 181.956 L 317.154 177.319 L 317.154 177.319 Q 318.756 181.451 321.328 184.907 L 321.328 184.907 L 321.328 184.907 Q 323.9 188.364 327.272 190.851 L 327.272 190.851 L 327.272 190.851 Q 330.645 193.339 334.692 194.73 L 334.692 194.73 L 334.692 194.73 Q 338.739 196.121 343.207 196.121 L 343.207 196.121 L 343.207 196.121 Q 351.639 196.121 357.33 192.664 L 357.33 192.664 L 357.33 192.664 Q 363.021 189.207 366.478 183.643 L 366.478 183.643 L 366.478 183.643 Q 369.935 178.078 371.452 171.038 L 371.452 171.038 L 371.452 171.038 Q 372.97 163.998 372.97 156.747 L 372.97 156.747 L 372.97 151.013 L 372.97 151.013 Q 367.911 157.927 360.787 161.258 L 360.787 161.258 L 360.787 161.258 Q 353.662 164.588 345.146 164.588 L 345.146 164.588 L 345.146 164.588 Q 334.017 164.588 325.249 160.625 L 325.249 160.625 L 325.249 160.625 Q 316.48 156.662 310.409 149.791 L 310.409 149.791 L 310.409 149.791 Q 304.339 142.919 301.135 133.645 L 301.135 133.645 L 301.135 133.645 Q 297.931 124.371 297.931 113.747 L 297.931 113.747 L 297.931 113.747 Q 297.931 103.124 301.135 93.849 L 301.135 93.849 L 301.135 93.849 Q 304.339 84.575 310.409 77.703 L 310.409 77.703 L 310.409 77.703 Q 316.48 70.832 325.249 66.869 L 325.249 66.869 L 325.249 66.869 Q 334.017 62.906 345.146 62.906 L 345.146 62.906 L 345.146 62.906 Q 350.795 62.906 355.896 64.592 L 355.896 64.592 L 355.896 64.592 Q 360.997 66.279 365.255 69.356 L 365.255 69.356 L 365.255 69.356 Q 369.513 72.434 372.759 76.776 L 372.759 76.776 L 372.759 76.776 Q 376.005 81.118 377.86 86.43 L 377.86 86.43 L 390.507 65.267 L 401.468 65.267 Z  M 372.801 113.747 L 372.801 113.747 L 372.801 113.747 Q 372.801 109.953 372.422 105.737 L 372.422 105.737 L 372.422 105.737 Q 372.042 101.522 371.115 97.39 L 371.115 97.39 L 371.115 97.39 Q 370.187 93.259 368.543 89.507 L 368.543 89.507 L 368.543 89.507 Q 366.899 85.755 364.328 82.846 L 364.328 82.846 L 364.328 82.846 Q 361.756 79.937 358.131 78.251 L 358.131 78.251 L 358.131 78.251 Q 354.505 76.565 349.699 76.565 L 349.699 76.565 L 349.699 76.565 Q 344.894 76.565 341.352 78.293 L 341.352 78.293 L 341.352 78.293 Q 337.811 80.022 335.282 82.931 L 335.282 82.931 L 335.282 82.931 Q 332.752 85.839 331.108 89.633 L 331.108 89.633 L 331.108 89.633 Q 329.464 93.428 328.537 97.559 L 328.537 97.559 L 328.537 97.559 Q 327.609 101.69 327.23 105.864 L 327.23 105.864 L 327.23 105.864 Q 326.851 110.037 326.851 113.747 L 326.851 113.747 L 326.851 113.747 Q 326.851 117.457 327.23 121.672 L 327.23 121.672 L 327.23 121.672 Q 327.609 125.888 328.537 130.02 L 328.537 130.02 L 328.537 130.02 Q 329.464 134.151 331.108 137.945 L 331.108 137.945 L 331.108 137.945 Q 332.752 141.739 335.282 144.648 L 335.282 144.648 L 335.282 144.648 Q 337.811 147.557 341.352 149.285 L 341.352 149.285 L 341.352 149.285 Q 344.894 151.013 349.699 151.013 L 349.699 151.013 L 349.699 151.013 Q 354.084 151.013 357.498 149.201 L 357.498 149.201 L 357.498 149.201 Q 360.913 147.388 363.485 144.353 L 363.485 144.353 L 363.485 144.353 Q 366.056 141.317 367.827 137.439 L 367.827 137.439 L 367.827 137.439 Q 369.597 133.561 370.693 129.429 L 370.693 129.429 L 370.693 129.429 Q 371.789 125.298 372.295 121.209 L 372.295 121.209 L 372.295 121.209 Q 372.801 117.12 372.801 113.747 Z " fill-rule="evenodd" fill="rgb(16,64,27)"/><path d=" M 173.36 191.25 L 173.36 191.25 L 173.36 191.25 Q 173.36 193.099 172.802 194.714 L 172.802 194.714 L 172.802 194.714 Q 172.245 196.329 171.188 197.525 L 171.188 197.525 L 171.188 197.525 Q 170.131 198.721 168.604 199.411 L 168.604 199.411 L 168.604 199.411 Q 167.078 200.101 165.14 200.101 L 165.14 200.101 L 165.14 200.101 Q 163.657 200.101 162.417 199.521 L 162.417 199.521 L 162.417 199.521 Q 161.177 198.942 160.296 197.738 L 160.296 197.738 L 160.296 207.588 L 155.334 207.588 L 155.334 182.809 L 157.243 182.809 L 159.444 186.494 L 159.444 186.494 Q 159.767 185.569 160.333 184.813 L 160.333 184.813 L 160.333 184.813 Q 160.898 184.057 161.639 183.521 L 161.639 183.521 L 161.639 183.521 Q 162.38 182.985 163.268 182.692 L 163.268 182.692 L 163.268 182.692 Q 164.156 182.398 165.14 182.398 L 165.14 182.398 L 165.14 182.398 Q 167.078 182.398 168.604 183.088 L 168.604 183.088 L 168.604 183.088 Q 170.131 183.778 171.188 184.974 L 171.188 184.974 L 171.188 184.974 Q 172.245 186.171 172.802 187.785 L 172.802 187.785 L 172.802 187.785 Q 173.36 189.4 173.36 191.25 Z  M 168.325 191.25 L 168.325 191.25 L 168.325 191.25 Q 168.325 190.604 168.259 189.877 L 168.259 189.877 L 168.259 189.877 Q 168.193 189.151 168.032 188.431 L 168.032 188.431 L 168.032 188.431 Q 167.87 187.712 167.584 187.052 L 167.584 187.052 L 167.584 187.052 Q 167.298 186.391 166.857 185.885 L 166.857 185.885 L 166.857 185.885 Q 166.417 185.378 165.793 185.077 L 165.793 185.077 L 165.793 185.077 Q 165.169 184.776 164.347 184.776 L 164.347 184.776 L 164.347 184.776 Q 163.496 184.776 162.872 185.07 L 162.872 185.07 L 162.872 185.07 Q 162.248 185.363 161.8 185.87 L 161.8 185.87 L 161.8 185.87 Q 161.353 186.376 161.066 187.03 L 161.066 187.03 L 161.066 187.03 Q 160.78 187.683 160.619 188.402 L 160.619 188.402 L 160.619 188.402 Q 160.457 189.121 160.391 189.855 L 160.391 189.855 L 160.391 189.855 Q 160.325 190.589 160.325 191.25 L 160.325 191.25 L 160.325 191.25 Q 160.325 191.837 160.413 192.549 L 160.413 192.549 L 160.413 192.549 Q 160.501 193.261 160.692 193.98 L 160.692 193.98 L 160.692 193.98 Q 160.883 194.699 161.191 195.375 L 161.191 195.375 L 161.191 195.375 Q 161.5 196.05 161.947 196.578 L 161.947 196.578 L 161.947 196.578 Q 162.395 197.107 162.989 197.422 L 162.989 197.422 L 162.989 197.422 Q 163.584 197.738 164.347 197.738 L 164.347 197.738 L 164.347 197.738 Q 165.184 197.738 165.8 197.437 L 165.8 197.437 L 165.8 197.437 Q 166.417 197.136 166.857 196.63 L 166.857 196.63 L 166.857 196.63 Q 167.298 196.123 167.584 195.463 L 167.584 195.463 L 167.584 195.463 Q 167.87 194.802 168.032 194.083 L 168.032 194.083 L 168.032 194.083 Q 168.193 193.364 168.259 192.63 L 168.259 192.63 L 168.259 192.63 Q 168.325 191.896 168.325 191.25 Z  M 181.507 180.152 L 181.507 199.764 L 176.546 199.764 L 176.546 175 L 178.454 175 L 181.507 180.152 Z  M 202.718 182.809 L 202.718 199.764 L 197.757 199.764 L 197.757 197.738 L 197.757 197.738 Q 196.876 198.942 195.636 199.521 L 195.636 199.521 L 195.636 199.521 Q 194.395 200.101 192.913 200.101 L 192.913 200.101 L 192.913 200.101 Q 190.975 200.101 189.449 199.411 L 189.449 199.411 L 189.449 199.411 Q 187.922 198.721 186.865 197.525 L 186.865 197.525 L 186.865 197.525 Q 185.808 196.329 185.25 194.714 L 185.25 194.714 L 185.25 194.714 Q 184.692 193.099 184.692 191.25 L 184.692 191.25 L 184.692 191.25 Q 184.692 189.4 185.25 187.785 L 185.25 187.785 L 185.25 187.785 Q 185.808 186.171 186.865 184.974 L 186.865 184.974 L 186.865 184.974 Q 187.922 183.778 189.449 183.088 L 189.449 183.088 L 189.449 183.088 Q 190.975 182.398 192.913 182.398 L 192.913 182.398 L 192.913 182.398 Q 193.896 182.398 194.784 182.692 L 194.784 182.692 L 194.784 182.692 Q 195.672 182.985 196.414 183.521 L 196.414 183.521 L 196.414 183.521 Q 197.155 184.057 197.72 184.813 L 197.72 184.813 L 197.72 184.813 Q 198.285 185.569 198.608 186.494 L 198.608 186.494 L 200.81 182.809 L 202.718 182.809 Z  M 197.728 191.25 L 197.728 191.25 L 197.728 191.25 Q 197.728 190.589 197.661 189.855 L 197.661 189.855 L 197.661 189.855 Q 197.595 189.121 197.434 188.402 L 197.434 188.402 L 197.434 188.402 Q 197.272 187.683 196.986 187.03 L 196.986 187.03 L 196.986 187.03 Q 196.7 186.376 196.252 185.87 L 196.252 185.87 L 196.252 185.87 Q 195.805 185.363 195.173 185.07 L 195.173 185.07 L 195.173 185.07 Q 194.542 184.776 193.705 184.776 L 193.705 184.776 L 193.705 184.776 Q 192.869 184.776 192.252 185.077 L 192.252 185.077 L 192.252 185.077 Q 191.636 185.378 191.195 185.885 L 191.195 185.885 L 191.195 185.885 Q 190.755 186.391 190.469 187.052 L 190.469 187.052 L 190.469 187.052 Q 190.182 187.712 190.021 188.431 L 190.021 188.431 L 190.021 188.431 Q 189.86 189.151 189.793 189.877 L 189.793 189.877 L 189.793 189.877 Q 189.727 190.604 189.727 191.25 L 189.727 191.25 L 189.727 191.25 Q 189.727 191.896 189.793 192.63 L 189.793 192.63 L 189.793 192.63 Q 189.86 193.364 190.021 194.083 L 190.021 194.083 L 190.021 194.083 Q 190.182 194.802 190.469 195.463 L 190.469 195.463 L 190.469 195.463 Q 190.755 196.123 191.195 196.63 L 191.195 196.63 L 191.195 196.63 Q 191.636 197.136 192.252 197.437 L 192.252 197.437 L 192.252 197.437 Q 192.869 197.738 193.705 197.738 L 193.705 197.738 L 193.705 197.738 Q 194.469 197.738 195.063 197.422 L 195.063 197.422 L 195.063 197.422 Q 195.658 197.107 196.105 196.578 L 196.105 196.578 L 196.105 196.578 Q 196.553 196.05 196.861 195.375 L 196.861 195.375 L 196.861 195.375 Q 197.17 194.699 197.361 193.98 L 197.361 193.98 L 197.361 193.98 Q 197.551 193.261 197.639 192.549 L 197.639 192.549 L 197.639 192.549 Q 197.728 191.837 197.728 191.25 Z  M 213.243 184.776 L 213.243 199.764 L 208.267 199.764 L 208.267 184.776 L 205.185 184.776 L 205.185 182.809 L 208.267 182.809 L 208.267 176.571 L 213.243 176.571 L 213.243 182.809 L 218.381 182.809 L 218.381 184.776 L 213.243 184.776 Z  M 236.524 175.837 L 236.524 175.837 L 233.721 180.475 L 233.721 180.475 Q 233.677 179.917 233.515 179.191 L 233.515 179.191 L 233.515 179.191 Q 233.354 178.464 232.979 177.818 L 232.979 177.818 L 232.979 177.818 Q 232.605 177.173 231.952 176.725 L 231.952 176.725 L 231.952 176.725 Q 231.299 176.277 230.286 176.277 L 230.286 176.277 L 230.286 176.277 Q 229.244 176.277 228.612 176.688 L 228.612 176.688 L 228.612 176.688 Q 227.981 177.099 227.644 177.921 L 227.644 177.921 L 227.644 177.921 Q 227.306 178.743 227.188 179.962 L 227.188 179.962 L 227.188 179.962 Q 227.071 181.18 227.071 182.795 L 227.071 182.795 L 232.209 182.795 L 232.209 184.762 L 227.071 184.762 L 227.071 199.764 L 222.095 199.764 L 222.095 184.762 L 219.012 184.762 L 219.012 182.795 L 222.095 182.795 L 222.095 182.795 Q 222.095 180.461 222.594 178.787 L 222.594 178.787 L 222.594 178.787 Q 223.093 177.114 224.106 176.035 L 224.106 176.035 L 224.106 176.035 Q 225.119 174.956 226.653 174.45 L 226.653 174.45 L 226.653 174.45 Q 228.187 173.943 230.242 173.943 L 230.242 173.943 L 230.242 173.943 Q 231.475 173.943 232.451 174.112 L 232.451 174.112 L 232.451 174.112 Q 233.427 174.281 234.183 174.552 L 234.183 174.552 L 234.183 174.552 Q 234.939 174.824 235.512 175.161 L 235.512 175.161 L 235.512 175.161 Q 236.084 175.499 236.524 175.837 Z  M 253.244 191.25 L 253.244 191.25 L 253.244 191.25 Q 253.244 192.571 252.892 193.731 L 252.892 193.731 L 252.892 193.731 Q 252.539 194.89 251.915 195.874 L 251.915 195.874 L 251.915 195.874 Q 251.292 196.857 250.411 197.643 L 250.411 197.643 L 250.411 197.643 Q 249.53 198.428 248.481 198.971 L 248.481 198.971 L 248.481 198.971 Q 247.431 199.514 246.235 199.808 L 246.235 199.808 L 246.235 199.808 Q 245.038 200.101 243.776 200.101 L 243.776 200.101 L 243.776 200.101 Q 242.513 200.101 241.324 199.808 L 241.324 199.808 L 241.324 199.808 Q 240.135 199.514 239.086 198.971 L 239.086 198.971 L 239.086 198.971 Q 238.036 198.428 237.156 197.643 L 237.156 197.643 L 237.156 197.643 Q 236.275 196.857 235.651 195.874 L 235.651 195.874 L 235.651 195.874 Q 235.027 194.89 234.675 193.723 L 234.675 193.723 L 234.675 193.723 Q 234.323 192.556 234.323 191.25 L 234.323 191.25 L 234.323 191.25 Q 234.323 189.943 234.675 188.776 L 234.675 188.776 L 234.675 188.776 Q 235.027 187.609 235.651 186.626 L 235.651 186.626 L 235.651 186.626 Q 236.275 185.642 237.156 184.857 L 237.156 184.857 L 237.156 184.857 Q 238.036 184.072 239.086 183.529 L 239.086 183.529 L 239.086 183.529 Q 240.135 182.985 241.324 182.692 L 241.324 182.692 L 241.324 182.692 Q 242.513 182.398 243.776 182.398 L 243.776 182.398 L 243.776 182.398 Q 245.038 182.398 246.235 182.692 L 246.235 182.692 L 246.235 182.692 Q 247.431 182.985 248.481 183.529 L 248.481 183.529 L 248.481 183.529 Q 249.53 184.072 250.411 184.857 L 250.411 184.857 L 250.411 184.857 Q 251.292 185.642 251.915 186.626 L 251.915 186.626 L 251.915 186.626 Q 252.539 187.609 252.892 188.776 L 252.892 188.776 L 252.892 188.776 Q 253.244 189.943 253.244 191.25 Z  M 248.194 191.25 L 248.194 191.25 L 248.194 191.25 Q 248.194 190.545 248.114 189.76 L 248.114 189.76 L 248.114 189.76 Q 248.033 188.975 247.842 188.219 L 247.842 188.219 L 247.842 188.219 Q 247.651 187.463 247.321 186.765 L 247.321 186.765 L 247.321 186.765 Q 246.991 186.068 246.506 185.547 L 246.506 185.547 L 246.506 185.547 Q 246.022 185.026 245.347 184.71 L 245.347 184.71 L 245.347 184.71 Q 244.671 184.395 243.776 184.395 L 243.776 184.395 L 243.776 184.395 Q 242.924 184.395 242.264 184.718 L 242.264 184.718 L 242.264 184.718 Q 241.603 185.041 241.112 185.576 L 241.112 185.576 L 241.112 185.576 Q 240.62 186.112 240.29 186.817 L 240.29 186.817 L 240.29 186.817 Q 239.959 187.521 239.754 188.277 L 239.754 188.277 L 239.754 188.277 Q 239.548 189.033 239.46 189.804 L 239.46 189.804 L 239.46 189.804 Q 239.372 190.575 239.372 191.25 L 239.372 191.25 L 239.372 191.25 Q 239.372 191.925 239.46 192.696 L 239.46 192.696 L 239.46 192.696 Q 239.548 193.466 239.754 194.23 L 239.754 194.23 L 239.754 194.23 Q 239.959 194.993 240.29 195.69 L 240.29 195.69 L 240.29 195.69 Q 240.62 196.387 241.112 196.923 L 241.112 196.923 L 241.112 196.923 Q 241.603 197.459 242.264 197.782 L 242.264 197.782 L 242.264 197.782 Q 242.924 198.105 243.776 198.105 L 243.776 198.105 L 243.776 198.105 Q 244.657 198.105 245.332 197.789 L 245.332 197.789 L 245.332 197.789 Q 246.007 197.474 246.499 196.945 L 246.499 196.945 L 246.499 196.945 Q 246.991 196.417 247.314 195.727 L 247.314 195.727 L 247.314 195.727 Q 247.636 195.037 247.835 194.274 L 247.835 194.274 L 247.835 194.274 Q 248.033 193.51 248.114 192.732 L 248.114 192.732 L 248.114 192.732 Q 248.194 191.954 248.194 191.25 Z  M 270.785 184.307 L 270.785 184.307 L 267.996 188.93 L 267.996 188.93 Q 267.82 188.343 267.541 187.609 L 267.541 187.609 L 267.541 187.609 Q 267.262 186.875 266.851 186.237 L 266.851 186.237 L 266.851 186.237 Q 266.44 185.598 265.868 185.165 L 265.868 185.165 L 265.868 185.165 Q 265.295 184.732 264.547 184.732 L 264.547 184.732 L 264.547 184.732 Q 263.857 184.732 263.35 185.085 L 263.35 185.085 L 263.35 185.085 Q 262.844 185.437 262.492 186.002 L 262.492 186.002 L 262.492 186.002 Q 262.139 186.567 261.912 187.279 L 261.912 187.279 L 261.912 187.279 Q 261.684 187.991 261.56 188.718 L 261.56 188.718 L 261.56 188.718 Q 261.435 189.444 261.391 190.112 L 261.391 190.112 L 261.391 190.112 Q 261.347 190.78 261.347 191.264 L 261.347 191.264 L 261.347 199.764 L 256.371 199.764 L 256.371 182.809 L 258.279 182.809 L 260.29 186.758 L 260.29 186.758 Q 260.701 185.804 261.229 185.004 L 261.229 185.004 L 261.229 185.004 Q 261.758 184.204 262.448 183.624 L 262.448 183.624 L 262.448 183.624 Q 263.138 183.044 264.011 182.721 L 264.011 182.721 L 264.011 182.721 Q 264.884 182.398 265.985 182.398 L 265.985 182.398 L 265.985 182.398 Q 266.558 182.398 267.262 182.494 L 267.262 182.494 L 267.262 182.494 Q 267.967 182.589 268.642 182.817 L 268.642 182.817 L 268.642 182.817 Q 269.318 183.044 269.89 183.411 L 269.89 183.411 L 269.89 183.411 Q 270.462 183.778 270.785 184.307 Z  M 299.087 189.87 L 299.087 189.87 L 299.087 189.87 Q 299.087 191.617 298.676 193.51 L 298.676 193.51 L 298.676 193.51 Q 298.265 195.404 297.523 197.202 L 297.523 197.202 L 297.523 197.202 Q 296.782 199 295.74 200.6 L 295.74 200.6 L 295.74 200.6 Q 294.698 202.2 293.421 203.375 L 293.421 203.375 L 291.556 202.362 L 291.556 202.362 Q 291.982 201.599 292.334 200.644 L 292.334 200.644 L 292.334 200.644 Q 292.687 199.69 292.98 198.633 L 292.98 198.633 L 292.98 198.633 Q 293.274 197.576 293.494 196.461 L 293.494 196.461 L 293.494 196.461 Q 293.714 195.345 293.868 194.237 L 293.868 194.237 L 293.868 194.237 Q 294.022 193.129 294.096 192.086 L 294.096 192.086 L 294.096 192.086 Q 294.169 191.044 294.169 190.134 L 294.169 190.134 L 294.169 190.134 Q 294.169 189.62 294.14 189.019 L 294.14 189.019 L 294.14 189.019 Q 294.111 188.417 294.015 187.815 L 294.015 187.815 L 294.015 187.815 Q 293.92 187.213 293.729 186.663 L 293.729 186.663 L 293.729 186.663 Q 293.538 186.112 293.208 185.679 L 293.208 185.679 L 293.208 185.679 Q 292.877 185.246 292.386 184.989 L 292.386 184.989 L 292.386 184.989 Q 291.894 184.732 291.204 184.732 L 291.204 184.732 L 291.204 184.732 Q 290.529 184.732 290.052 185.092 L 290.052 185.092 L 290.052 185.092 Q 289.575 185.452 289.237 186.024 L 289.237 186.024 L 289.237 186.024 Q 288.899 186.596 288.701 187.316 L 288.701 187.316 L 288.701 187.316 Q 288.503 188.035 288.4 188.762 L 288.4 188.762 L 288.4 188.762 Q 288.298 189.488 288.261 190.149 L 288.261 190.149 L 288.261 190.149 Q 288.224 190.809 288.224 191.264 L 288.224 191.264 L 288.224 199.764 L 283.277 199.764 L 283.277 191.866 L 283.277 191.866 Q 283.277 191.353 283.292 190.626 L 283.292 190.626 L 283.292 190.626 Q 283.307 189.899 283.255 189.107 L 283.255 189.107 L 283.255 189.107 Q 283.204 188.314 283.065 187.529 L 283.065 187.529 L 283.065 187.529 Q 282.925 186.743 282.624 186.127 L 282.624 186.127 L 282.624 186.127 Q 282.323 185.51 281.809 185.121 L 281.809 185.121 L 281.809 185.121 Q 281.296 184.732 280.518 184.732 L 280.518 184.732 L 280.518 184.732 Q 279.857 184.732 279.409 185.099 L 279.409 185.099 L 279.409 185.099 Q 278.962 185.466 278.661 186.046 L 278.661 186.046 L 278.661 186.046 Q 278.36 186.626 278.191 187.352 L 278.191 187.352 L 278.191 187.352 Q 278.022 188.079 277.942 188.806 L 277.942 188.806 L 277.942 188.806 Q 277.861 189.532 277.846 190.186 L 277.846 190.186 L 277.846 190.186 Q 277.831 190.839 277.831 191.264 L 277.831 191.264 L 277.831 199.764 L 272.855 199.764 L 272.855 182.809 L 274.763 182.809 L 276.584 186.758 L 276.584 186.758 Q 277.2 184.703 278.529 183.551 L 278.529 183.551 L 278.529 183.551 Q 279.857 182.398 282.059 182.398 L 282.059 182.398 L 282.059 182.398 Q 284.041 182.398 285.347 183.22 L 285.347 183.22 L 285.347 183.22 Q 286.654 184.042 287.402 185.892 L 287.402 185.892 L 287.402 185.892 Q 287.828 185.085 288.349 184.439 L 288.349 184.439 L 288.349 184.439 Q 288.87 183.793 289.509 183.338 L 289.509 183.338 L 289.509 183.338 Q 290.147 182.883 290.925 182.64 L 290.925 182.64 L 290.925 182.64 Q 291.703 182.398 292.643 182.398 L 292.643 182.398 L 292.643 182.398 Q 294.375 182.398 295.6 182.963 L 295.6 182.963 L 295.6 182.963 Q 296.826 183.529 297.604 184.527 L 297.604 184.527 L 297.604 184.527 Q 298.382 185.525 298.734 186.897 L 298.734 186.897 L 298.734 186.897 Q 299.087 188.27 299.087 189.87 Z  M 20.096 191.308 L 20.096 191.308 L 20.096 191.308 Q 20.096 193.158 19.538 194.773 L 19.538 194.773 L 19.538 194.773 Q 18.98 196.387 17.923 197.584 L 17.923 197.584 L 17.923 197.584 Q 16.866 198.78 15.34 199.47 L 15.34 199.47 L 15.34 199.47 Q 13.813 200.16 11.875 200.16 L 11.875 200.16 L 11.875 200.16 Q 10.892 200.16 10.004 199.866 L 10.004 199.866 L 10.004 199.866 Q 9.116 199.573 8.374 199.037 L 8.374 199.037 L 8.374 199.037 Q 7.633 198.501 7.068 197.753 L 7.068 197.753 L 7.068 197.753 Q 6.503 197.004 6.18 196.079 L 6.18 196.079 L 3.978 199.764 L 2.07 199.764 L 2.07 176.571 L 7.031 176.571 L 7.031 184.835 L 7.031 184.835 Q 7.912 183.617 9.152 183.044 L 9.152 183.044 L 9.152 183.044 Q 10.393 182.472 11.875 182.472 L 11.875 182.472 L 11.875 182.472 Q 13.813 182.472 15.34 183.162 L 15.34 183.162 L 15.34 183.162 Q 16.866 183.851 17.923 185.041 L 17.923 185.041 L 17.923 185.041 Q 18.98 186.23 19.538 187.844 L 19.538 187.844 L 19.538 187.844 Q 20.096 189.459 20.096 191.308 Z  M 15.061 191.308 L 15.061 191.308 L 15.061 191.308 Q 15.061 190.663 14.995 189.936 L 14.995 189.936 L 14.995 189.936 Q 14.929 189.209 14.767 188.49 L 14.767 188.49 L 14.767 188.49 Q 14.606 187.771 14.319 187.11 L 14.319 187.11 L 14.319 187.11 Q 14.033 186.45 13.593 185.943 L 13.593 185.943 L 13.593 185.943 Q 13.152 185.437 12.536 185.136 L 12.536 185.136 L 12.536 185.136 Q 11.919 184.835 11.083 184.835 L 11.083 184.835 L 11.083 184.835 Q 10.319 184.835 9.725 185.151 L 9.725 185.151 L 9.725 185.151 Q 9.13 185.466 8.683 185.995 L 8.683 185.995 L 8.683 185.995 Q 8.235 186.523 7.927 187.198 L 7.927 187.198 L 7.927 187.198 Q 7.618 187.874 7.428 188.593 L 7.428 188.593 L 7.428 188.593 Q 7.237 189.312 7.149 190.017 L 7.149 190.017 L 7.149 190.017 Q 7.061 190.721 7.061 191.308 L 7.061 191.308 L 7.061 191.308 Q 7.061 191.969 7.127 192.703 L 7.127 192.703 L 7.127 192.703 Q 7.193 193.437 7.354 194.164 L 7.354 194.164 L 7.354 194.164 Q 7.516 194.89 7.802 195.543 L 7.802 195.543 L 7.802 195.543 Q 8.088 196.197 8.536 196.703 L 8.536 196.703 L 8.536 196.703 Q 8.984 197.209 9.607 197.503 L 9.607 197.503 L 9.607 197.503 Q 10.231 197.797 11.083 197.797 L 11.083 197.797 L 11.083 197.797 Q 11.905 197.797 12.529 197.496 L 12.529 197.496 L 12.529 197.496 Q 13.152 197.195 13.593 196.688 L 13.593 196.688 L 13.593 196.688 Q 14.033 196.182 14.319 195.514 L 14.319 195.514 L 14.319 195.514 Q 14.606 194.846 14.767 194.127 L 14.767 194.127 L 14.767 194.127 Q 14.929 193.408 14.995 192.681 L 14.995 192.681 L 14.995 192.681 Q 15.061 191.954 15.061 191.308 Z  M 28.257 180.152 L 28.257 199.764 L 23.296 199.764 L 23.296 175 L 25.204 175 L 28.257 180.152 Z  M 50.305 191.25 L 50.305 191.25 L 50.305 191.25 Q 50.305 192.571 49.953 193.731 L 49.953 193.731 L 49.953 193.731 Q 49.601 194.89 48.977 195.874 L 48.977 195.874 L 48.977 195.874 Q 48.353 196.857 47.472 197.643 L 47.472 197.643 L 47.472 197.643 Q 46.591 198.428 45.542 198.971 L 45.542 198.971 L 45.542 198.971 Q 44.492 199.514 43.296 199.808 L 43.296 199.808 L 43.296 199.808 Q 42.1 200.101 40.837 200.101 L 40.837 200.101 L 40.837 200.101 Q 39.575 200.101 38.386 199.808 L 38.386 199.808 L 38.386 199.808 Q 37.197 199.514 36.147 198.971 L 36.147 198.971 L 36.147 198.971 Q 35.098 198.428 34.217 197.643 L 34.217 197.643 L 34.217 197.643 Q 33.336 196.857 32.712 195.874 L 32.712 195.874 L 32.712 195.874 Q 32.089 194.89 31.736 193.723 L 31.736 193.723 L 31.736 193.723 Q 31.384 192.556 31.384 191.25 L 31.384 191.25 L 31.384 191.25 Q 31.384 189.943 31.736 188.776 L 31.736 188.776 L 31.736 188.776 Q 32.089 187.609 32.712 186.626 L 32.712 186.626 L 32.712 186.626 Q 33.336 185.642 34.217 184.857 L 34.217 184.857 L 34.217 184.857 Q 35.098 184.072 36.147 183.529 L 36.147 183.529 L 36.147 183.529 Q 37.197 182.985 38.386 182.692 L 38.386 182.692 L 38.386 182.692 Q 39.575 182.398 40.837 182.398 L 40.837 182.398 L 40.837 182.398 Q 42.1 182.398 43.296 182.692 L 43.296 182.692 L 43.296 182.692 Q 44.492 182.985 45.542 183.529 L 45.542 183.529 L 45.542 183.529 Q 46.591 184.072 47.472 184.857 L 47.472 184.857 L 47.472 184.857 Q 48.353 185.642 48.977 186.626 L 48.977 186.626 L 48.977 186.626 Q 49.601 187.609 49.953 188.776 L 49.953 188.776 L 49.953 188.776 Q 50.305 189.943 50.305 191.25 Z  M 45.256 191.25 L 45.256 191.25 L 45.256 191.25 Q 45.256 190.545 45.175 189.76 L 45.175 189.76 L 45.175 189.76 Q 45.094 188.975 44.903 188.219 L 44.903 188.219 L 44.903 188.219 Q 44.713 187.463 44.382 186.765 L 44.382 186.765 L 44.382 186.765 Q 44.052 186.068 43.568 185.547 L 43.568 185.547 L 43.568 185.547 Q 43.083 185.026 42.408 184.71 L 42.408 184.71 L 42.408 184.71 Q 41.733 184.395 40.837 184.395 L 40.837 184.395 L 40.837 184.395 Q 39.986 184.395 39.325 184.718 L 39.325 184.718 L 39.325 184.718 Q 38.665 185.041 38.173 185.576 L 38.173 185.576 L 38.173 185.576 Q 37.681 186.112 37.351 186.817 L 37.351 186.817 L 37.351 186.817 Q 37.021 187.521 36.815 188.277 L 36.815 188.277 L 36.815 188.277 Q 36.61 189.033 36.522 189.804 L 36.522 189.804 L 36.522 189.804 Q 36.434 190.575 36.434 191.25 L 36.434 191.25 L 36.434 191.25 Q 36.434 191.925 36.522 192.696 L 36.522 192.696 L 36.522 192.696 Q 36.61 193.466 36.815 194.23 L 36.815 194.23 L 36.815 194.23 Q 37.021 194.993 37.351 195.69 L 37.351 195.69 L 37.351 195.69 Q 37.681 196.387 38.173 196.923 L 38.173 196.923 L 38.173 196.923 Q 38.665 197.459 39.325 197.782 L 39.325 197.782 L 39.325 197.782 Q 39.986 198.105 40.837 198.105 L 40.837 198.105 L 40.837 198.105 Q 41.718 198.105 42.393 197.789 L 42.393 197.789 L 42.393 197.789 Q 43.068 197.474 43.56 196.945 L 43.56 196.945 L 43.56 196.945 Q 44.052 196.417 44.375 195.727 L 44.375 195.727 L 44.375 195.727 Q 44.698 195.037 44.896 194.274 L 44.896 194.274 L 44.896 194.274 Q 45.094 193.51 45.175 192.732 L 45.175 192.732 L 45.175 192.732 Q 45.256 191.954 45.256 191.25 Z  M 70.504 182.809 L 70.504 197.723 L 70.504 197.723 Q 70.504 199.749 69.902 201.54 L 69.902 201.54 L 69.902 201.54 Q 69.3 203.331 68.155 204.674 L 68.155 204.674 L 68.155 204.674 Q 67.01 206.017 65.344 206.802 L 65.344 206.802 L 65.344 206.802 Q 63.678 207.588 61.549 207.588 L 61.549 207.588 L 61.549 207.588 Q 60.375 207.588 59.179 207.323 L 59.179 207.323 L 59.179 207.323 Q 57.982 207.059 56.918 206.509 L 56.918 206.509 L 56.918 206.509 Q 55.854 205.958 55.01 205.114 L 55.01 205.114 L 55.01 205.114 Q 54.166 204.27 53.681 203.125 L 53.681 203.125 L 55.825 202.318 L 55.825 202.318 Q 56.104 203.037 56.551 203.639 L 56.551 203.639 L 56.551 203.639 Q 56.999 204.241 57.586 204.674 L 57.586 204.674 L 57.586 204.674 Q 58.173 205.107 58.878 205.349 L 58.878 205.349 L 58.878 205.349 Q 59.582 205.591 60.36 205.591 L 60.36 205.591 L 60.36 205.591 Q 61.828 205.591 62.819 204.989 L 62.819 204.989 L 62.819 204.989 Q 63.81 204.388 64.412 203.419 L 64.412 203.419 L 64.412 203.419 Q 65.014 202.45 65.278 201.224 L 65.278 201.224 L 65.278 201.224 Q 65.542 199.999 65.542 198.736 L 65.542 198.736 L 65.542 197.738 L 65.542 197.738 Q 64.661 198.942 63.421 199.521 L 63.421 199.521 L 63.421 199.521 Q 62.181 200.101 60.698 200.101 L 60.698 200.101 L 60.698 200.101 Q 58.76 200.101 57.234 199.411 L 57.234 199.411 L 57.234 199.411 Q 55.707 198.721 54.65 197.525 L 54.65 197.525 L 54.65 197.525 Q 53.593 196.329 53.036 194.714 L 53.036 194.714 L 53.036 194.714 Q 52.478 193.099 52.478 191.25 L 52.478 191.25 L 52.478 191.25 Q 52.478 189.4 53.036 187.785 L 53.036 187.785 L 53.036 187.785 Q 53.593 186.171 54.65 184.974 L 54.65 184.974 L 54.65 184.974 Q 55.707 183.778 57.234 183.088 L 57.234 183.088 L 57.234 183.088 Q 58.76 182.398 60.698 182.398 L 60.698 182.398 L 60.698 182.398 Q 61.682 182.398 62.57 182.692 L 62.57 182.692 L 62.57 182.692 Q 63.458 182.985 64.199 183.521 L 64.199 183.521 L 64.199 183.521 Q 64.94 184.057 65.506 184.813 L 65.506 184.813 L 65.506 184.813 Q 66.071 185.569 66.394 186.494 L 66.394 186.494 L 68.595 182.809 L 70.504 182.809 Z  M 65.513 191.25 L 65.513 191.25 L 65.513 191.25 Q 65.513 190.589 65.447 189.855 L 65.447 189.855 L 65.447 189.855 Q 65.381 189.121 65.219 188.402 L 65.219 188.402 L 65.219 188.402 Q 65.058 187.683 64.772 187.03 L 64.772 187.03 L 64.772 187.03 Q 64.485 186.376 64.038 185.87 L 64.038 185.87 L 64.038 185.87 Q 63.59 185.363 62.959 185.07 L 62.959 185.07 L 62.959 185.07 Q 62.327 184.776 61.491 184.776 L 61.491 184.776 L 61.491 184.776 Q 60.654 184.776 60.038 185.077 L 60.038 185.077 L 60.038 185.077 Q 59.421 185.378 58.981 185.885 L 58.981 185.885 L 58.981 185.885 Q 58.54 186.391 58.254 187.052 L 58.254 187.052 L 58.254 187.052 Q 57.968 187.712 57.806 188.431 L 57.806 188.431 L 57.806 188.431 Q 57.645 189.151 57.579 189.877 L 57.579 189.877 L 57.579 189.877 Q 57.513 190.604 57.513 191.25 L 57.513 191.25 L 57.513 191.25 Q 57.513 191.896 57.579 192.63 L 57.579 192.63 L 57.579 192.63 Q 57.645 193.364 57.806 194.083 L 57.806 194.083 L 57.806 194.083 Q 57.968 194.802 58.254 195.463 L 58.254 195.463 L 58.254 195.463 Q 58.54 196.123 58.981 196.63 L 58.981 196.63 L 58.981 196.63 Q 59.421 197.136 60.038 197.437 L 60.038 197.437 L 60.038 197.437 Q 60.654 197.738 61.491 197.738 L 61.491 197.738 L 61.491 197.738 Q 62.254 197.738 62.849 197.422 L 62.849 197.422 L 62.849 197.422 Q 63.443 197.107 63.891 196.578 L 63.891 196.578 L 63.891 196.578 Q 64.339 196.05 64.647 195.375 L 64.647 195.375 L 64.647 195.375 Q 64.955 194.699 65.146 193.98 L 65.146 193.98 L 65.146 193.98 Q 65.337 193.261 65.425 192.549 L 65.425 192.549 L 65.425 192.549 Q 65.513 191.837 65.513 191.25 Z  M 91.715 182.809 L 91.715 197.723 L 91.715 197.723 Q 91.715 199.749 91.113 201.54 L 91.113 201.54 L 91.113 201.54 Q 90.511 203.331 89.366 204.674 L 89.366 204.674 L 89.366 204.674 Q 88.221 206.017 86.555 206.802 L 86.555 206.802 L 86.555 206.802 Q 84.889 207.588 82.761 207.588 L 82.761 207.588 L 82.761 207.588 Q 81.586 207.588 80.39 207.323 L 80.39 207.323 L 80.39 207.323 Q 79.194 207.059 78.13 206.509 L 78.13 206.509 L 78.13 206.509 Q 77.065 205.958 76.221 205.114 L 76.221 205.114 L 76.221 205.114 Q 75.377 204.27 74.893 203.125 L 74.893 203.125 L 77.036 202.318 L 77.036 202.318 Q 77.315 203.037 77.763 203.639 L 77.763 203.639 L 77.763 203.639 Q 78.21 204.241 78.797 204.674 L 78.797 204.674 L 78.797 204.674 Q 79.385 205.107 80.089 205.349 L 80.089 205.349 L 80.089 205.349 Q 80.794 205.591 81.572 205.591 L 81.572 205.591 L 81.572 205.591 Q 83.04 205.591 84.031 204.989 L 84.031 204.989 L 84.031 204.989 Q 85.021 204.388 85.623 203.419 L 85.623 203.419 L 85.623 203.419 Q 86.225 202.45 86.489 201.224 L 86.489 201.224 L 86.489 201.224 Q 86.754 199.999 86.754 198.736 L 86.754 198.736 L 86.754 197.738 L 86.754 197.738 Q 85.873 198.942 84.632 199.521 L 84.632 199.521 L 84.632 199.521 Q 83.392 200.101 81.909 200.101 L 81.909 200.101 L 81.909 200.101 Q 79.972 200.101 78.445 199.411 L 78.445 199.411 L 78.445 199.411 Q 76.919 198.721 75.862 197.525 L 75.862 197.525 L 75.862 197.525 Q 74.805 196.329 74.247 194.714 L 74.247 194.714 L 74.247 194.714 Q 73.689 193.099 73.689 191.25 L 73.689 191.25 L 73.689 191.25 Q 73.689 189.4 74.247 187.785 L 74.247 187.785 L 74.247 187.785 Q 74.805 186.171 75.862 184.974 L 75.862 184.974 L 75.862 184.974 Q 76.919 183.778 78.445 183.088 L 78.445 183.088 L 78.445 183.088 Q 79.972 182.398 81.909 182.398 L 81.909 182.398 L 81.909 182.398 Q 82.893 182.398 83.781 182.692 L 83.781 182.692 L 83.781 182.692 Q 84.669 182.985 85.41 183.521 L 85.41 183.521 L 85.41 183.521 Q 86.152 184.057 86.717 184.813 L 86.717 184.813 L 86.717 184.813 Q 87.282 185.569 87.605 186.494 L 87.605 186.494 L 89.807 182.809 L 91.715 182.809 Z  M 86.724 191.25 L 86.724 191.25 L 86.724 191.25 Q 86.724 190.589 86.658 189.855 L 86.658 189.855 L 86.658 189.855 Q 86.592 189.121 86.431 188.402 L 86.431 188.402 L 86.431 188.402 Q 86.269 187.683 85.983 187.03 L 85.983 187.03 L 85.983 187.03 Q 85.697 186.376 85.249 185.87 L 85.249 185.87 L 85.249 185.87 Q 84.801 185.363 84.17 185.07 L 84.17 185.07 L 84.17 185.07 Q 83.539 184.776 82.702 184.776 L 82.702 184.776 L 82.702 184.776 Q 81.865 184.776 81.249 185.077 L 81.249 185.077 L 81.249 185.077 Q 80.632 185.378 80.192 185.885 L 80.192 185.885 L 80.192 185.885 Q 79.752 186.391 79.465 187.052 L 79.465 187.052 L 79.465 187.052 Q 79.179 187.712 79.018 188.431 L 79.018 188.431 L 79.018 188.431 Q 78.856 189.151 78.79 189.877 L 78.79 189.877 L 78.79 189.877 Q 78.724 190.604 78.724 191.25 L 78.724 191.25 L 78.724 191.25 Q 78.724 191.896 78.79 192.63 L 78.79 192.63 L 78.79 192.63 Q 78.856 193.364 79.018 194.083 L 79.018 194.083 L 79.018 194.083 Q 79.179 194.802 79.465 195.463 L 79.465 195.463 L 79.465 195.463 Q 79.752 196.123 80.192 196.63 L 80.192 196.63 L 80.192 196.63 Q 80.632 197.136 81.249 197.437 L 81.249 197.437 L 81.249 197.437 Q 81.865 197.738 82.702 197.738 L 82.702 197.738 L 82.702 197.738 Q 83.465 197.738 84.06 197.422 L 84.06 197.422 L 84.06 197.422 Q 84.654 197.107 85.102 196.578 L 85.102 196.578 L 85.102 196.578 Q 85.55 196.05 85.858 195.375 L 85.858 195.375 L 85.858 195.375 Q 86.166 194.699 86.357 193.98 L 86.357 193.98 L 86.357 193.98 Q 86.548 193.261 86.636 192.549 L 86.636 192.549 L 86.636 192.549 Q 86.724 191.837 86.724 191.25 Z  M 101.066 178.714 L 101.066 178.714 L 101.066 178.714 Q 101.066 179.272 100.853 179.771 L 100.853 179.771 L 100.853 179.771 Q 100.64 180.27 100.273 180.637 L 100.273 180.637 L 100.273 180.637 Q 99.906 181.004 99.407 181.217 L 99.407 181.217 L 99.407 181.217 Q 98.908 181.429 98.35 181.429 L 98.35 181.429 L 98.35 181.429 Q 97.792 181.429 97.3 181.217 L 97.3 181.217 L 97.3 181.217 Q 96.809 181.004 96.442 180.637 L 96.442 180.637 L 96.442 180.637 Q 96.075 180.27 95.862 179.771 L 95.862 179.771 L 95.862 179.771 Q 95.649 179.272 95.649 178.714 L 95.649 178.714 L 95.649 178.714 Q 95.649 178.156 95.862 177.664 L 95.862 177.664 L 95.862 177.664 Q 96.075 177.173 96.442 176.806 L 96.442 176.806 L 96.442 176.806 Q 96.809 176.439 97.3 176.226 L 97.3 176.226 L 97.3 176.226 Q 97.792 176.013 98.35 176.013 L 98.35 176.013 L 98.35 176.013 Q 98.908 176.013 99.407 176.226 L 99.407 176.226 L 99.407 176.226 Q 99.906 176.439 100.273 176.806 L 100.273 176.806 L 100.273 176.806 Q 100.64 177.173 100.853 177.664 L 100.853 177.664 L 100.853 177.664 Q 101.066 178.156 101.066 178.714 Z  M 100.845 182.824 L 100.845 199.764 L 95.869 199.764 L 95.869 182.824 L 100.845 182.824 Z  M 122.336 190.046 L 122.336 190.046 L 122.336 190.046 Q 122.336 191.764 121.917 193.628 L 121.917 193.628 L 121.917 193.628 Q 121.499 195.492 120.75 197.283 L 120.75 197.283 L 120.75 197.283 Q 120.002 199.074 118.959 200.652 L 118.959 200.652 L 118.959 200.652 Q 117.917 202.23 116.67 203.375 L 116.67 203.375 L 114.805 202.362 L 114.805 202.362 Q 115.202 201.628 115.554 200.718 L 115.554 200.718 L 115.554 200.718 Q 115.906 199.808 116.192 198.787 L 116.192 198.787 L 116.192 198.787 Q 116.479 197.767 116.706 196.681 L 116.706 196.681 L 116.706 196.681 Q 116.934 195.595 117.088 194.531 L 117.088 194.531 L 117.088 194.531 Q 117.242 193.466 117.323 192.461 L 117.323 192.461 L 117.323 192.461 Q 117.403 191.455 117.403 190.589 L 117.403 190.589 L 117.403 190.589 Q 117.403 190.017 117.359 189.364 L 117.359 189.364 L 117.359 189.364 Q 117.315 188.71 117.176 188.057 L 117.176 188.057 L 117.176 188.057 Q 117.036 187.404 116.802 186.802 L 116.802 186.802 L 116.802 186.802 Q 116.567 186.2 116.178 185.745 L 116.178 185.745 L 116.178 185.745 Q 115.789 185.29 115.238 185.011 L 115.238 185.011 L 115.238 185.011 Q 114.688 184.732 113.939 184.732 L 113.939 184.732 L 113.939 184.732 Q 113.205 184.732 112.633 185.063 L 112.633 185.063 L 112.633 185.063 Q 112.06 185.393 111.62 185.929 L 111.62 185.929 L 111.62 185.929 Q 111.18 186.464 110.864 187.154 L 110.864 187.154 L 110.864 187.154 Q 110.548 187.844 110.35 188.571 L 110.35 188.571 L 110.35 188.571 Q 110.152 189.297 110.064 190.002 L 110.064 190.002 L 110.064 190.002 Q 109.976 190.707 109.976 191.264 L 109.976 191.264 L 109.976 199.764 L 105 199.764 L 105 182.809 L 106.908 182.809 L 109.183 186.758 L 109.183 186.758 Q 109.594 185.774 110.211 184.967 L 110.211 184.967 L 110.211 184.967 Q 110.827 184.16 111.605 183.587 L 111.605 183.587 L 111.605 183.587 Q 112.383 183.015 113.33 182.707 L 113.33 182.707 L 113.33 182.707 Q 114.277 182.398 115.378 182.398 L 115.378 182.398 L 115.378 182.398 Q 117.139 182.398 118.446 182.971 L 118.446 182.971 L 118.446 182.971 Q 119.752 183.543 120.618 184.563 L 120.618 184.563 L 120.618 184.563 Q 121.484 185.584 121.91 186.985 L 121.91 186.985 L 121.91 186.985 Q 122.336 188.387 122.336 190.046 Z  M 142.681 182.809 L 142.681 197.723 L 142.681 197.723 Q 142.681 199.749 142.079 201.54 L 142.079 201.54 L 142.079 201.54 Q 141.477 203.331 140.332 204.674 L 140.332 204.674 L 140.332 204.674 Q 139.187 206.017 137.521 206.802 L 137.521 206.802 L 137.521 206.802 Q 135.855 207.588 133.727 207.588 L 133.727 207.588 L 133.727 207.588 Q 132.552 207.588 131.356 207.323 L 131.356 207.323 L 131.356 207.323 Q 130.16 207.059 129.095 206.509 L 129.095 206.509 L 129.095 206.509 Q 128.031 205.958 127.187 205.114 L 127.187 205.114 L 127.187 205.114 Q 126.343 204.27 125.859 203.125 L 125.859 203.125 L 128.002 202.318 L 128.002 202.318 Q 128.281 203.037 128.728 203.639 L 128.728 203.639 L 128.728 203.639 Q 129.176 204.241 129.763 204.674 L 129.763 204.674 L 129.763 204.674 Q 130.35 205.107 131.055 205.349 L 131.055 205.349 L 131.055 205.349 Q 131.76 205.591 132.538 205.591 L 132.538 205.591 L 132.538 205.591 Q 134.006 205.591 134.996 204.989 L 134.996 204.989 L 134.996 204.989 Q 135.987 204.388 136.589 203.419 L 136.589 203.419 L 136.589 203.419 Q 137.191 202.45 137.455 201.224 L 137.455 201.224 L 137.455 201.224 Q 137.719 199.999 137.719 198.736 L 137.719 198.736 L 137.719 197.738 L 137.719 197.738 Q 136.839 198.942 135.598 199.521 L 135.598 199.521 L 135.598 199.521 Q 134.358 200.101 132.875 200.101 L 132.875 200.101 L 132.875 200.101 Q 130.938 200.101 129.411 199.411 L 129.411 199.411 L 129.411 199.411 Q 127.884 198.721 126.827 197.525 L 126.827 197.525 L 126.827 197.525 Q 125.771 196.329 125.213 194.714 L 125.213 194.714 L 125.213 194.714 Q 124.655 193.099 124.655 191.25 L 124.655 191.25 L 124.655 191.25 Q 124.655 189.4 125.213 187.785 L 125.213 187.785 L 125.213 187.785 Q 125.771 186.171 126.827 184.974 L 126.827 184.974 L 126.827 184.974 Q 127.884 183.778 129.411 183.088 L 129.411 183.088 L 129.411 183.088 Q 130.938 182.398 132.875 182.398 L 132.875 182.398 L 132.875 182.398 Q 133.859 182.398 134.747 182.692 L 134.747 182.692 L 134.747 182.692 Q 135.635 182.985 136.376 183.521 L 136.376 183.521 L 136.376 183.521 Q 137.118 184.057 137.683 184.813 L 137.683 184.813 L 137.683 184.813 Q 138.248 185.569 138.571 186.494 L 138.571 186.494 L 140.773 182.809 L 142.681 182.809 Z  M 137.69 191.25 L 137.69 191.25 L 137.69 191.25 Q 137.69 190.589 137.624 189.855 L 137.624 189.855 L 137.624 189.855 Q 137.558 189.121 137.396 188.402 L 137.396 188.402 L 137.396 188.402 Q 137.235 187.683 136.949 187.03 L 136.949 187.03 L 136.949 187.03 Q 136.662 186.376 136.215 185.87 L 136.215 185.87 L 136.215 185.87 Q 135.767 185.363 135.136 185.07 L 135.136 185.07 L 135.136 185.07 Q 134.505 184.776 133.668 184.776 L 133.668 184.776 L 133.668 184.776 Q 132.831 184.776 132.215 185.077 L 132.215 185.077 L 132.215 185.077 Q 131.598 185.378 131.158 185.885 L 131.158 185.885 L 131.158 185.885 Q 130.717 186.391 130.431 187.052 L 130.431 187.052 L 130.431 187.052 Q 130.145 187.712 129.983 188.431 L 129.983 188.431 L 129.983 188.431 Q 129.822 189.151 129.756 189.877 L 129.756 189.877 L 129.756 189.877 Q 129.69 190.604 129.69 191.25 L 129.69 191.25 L 129.69 191.25 Q 129.69 191.896 129.756 192.63 L 129.756 192.63 L 129.756 192.63 Q 129.822 193.364 129.983 194.083 L 129.983 194.083 L 129.983 194.083 Q 130.145 194.802 130.431 195.463 L 130.431 195.463 L 130.431 195.463 Q 130.717 196.123 131.158 196.63 L 131.158 196.63 L 131.158 196.63 Q 131.598 197.136 132.215 197.437 L 132.215 197.437 L 132.215 197.437 Q 132.831 197.738 133.668 197.738 L 133.668 197.738 L 133.668 197.738 Q 134.431 197.738 135.026 197.422 L 135.026 197.422 L 135.026 197.422 Q 135.62 197.107 136.068 196.578 L 136.068 196.578 L 136.068 196.578 Q 136.516 196.05 136.824 195.375 L 136.824 195.375 L 136.824 195.375 Q 137.132 194.699 137.323 193.98 L 137.323 193.98 L 137.323 193.98 Q 137.514 193.261 137.602 192.549 L 137.602 192.549 L 137.602 192.549 Q 137.69 191.837 137.69 191.25 Z " fill-rule="evenodd" fill="rgb(130,32,32)"/><rect x="16.634" y="0" width="386" height="17" transform="matrix(1,0,0,1,0,0)" fill="rgb(16,64,27)"/></g></svg>