<?xml version="1.0" standalone="no"?><!-- Generator: Gravit.io --><svg xmlns="http://www.w3.org/2000/svg" xmlns:xlink="http://www.w3.org/1999/xlink" style="isolation:isolate" viewBox="0 0 370 370" width="370" height="370"><defs><clipPath id="_clipPath_LfYcMVAOv71G95O5VqORzDuficAs9Jos"><rect width="370" height="370"/></clipPath></defs><g clip-path="url(#_clipPath_LfYcMVAOv71G95O5VqORzDuficAs9Jos)"><path d=" M 0 370 L 370 370 L 370 0 L 0 0 L 0 370 Z " fill="rgb(123,0,0)"/><path d=" M 99.021 294.082 L 99.021 294.082 L 99.021 294.082 Q 99.564 275.363 98.614 256.509 L 98.614 256.509 L 98.614 256.509 Q 97.665 237.654 96.444 218.799 L 96.444 218.799 L 96.444 218.799 Q 95.223 199.945 94.273 181.09 L 94.273 181.09 L 94.273 181.09 Q 93.324 162.235 94.138 143.516 L 94.138 143.516 L 94.138 143.516 Q 91.154 144.33 84.914 145.822 L 84.914 145.822 L 84.914 145.822 Q 78.674 147.314 70.807 149.213 L 70.807 149.213 L 70.807 149.213 Q 62.939 151.112 54.122 153.147 L 54.122 153.147 L 54.122 153.147 Q 45.306 155.182 37.438 157.081 L 37.438 157.081 L 37.438 157.081 Q 29.571 158.98 23.331 160.472 L 23.331 160.472 L 23.331 160.472 Q 17.091 161.964 14.107 162.506 L 14.107 162.506 L 14.107 162.506 Q 10.309 163.32 6.647 161.557 L 6.647 161.557 L 6.647 161.557 Q 2.984 159.794 0 157.623 L 0 157.623 L 9.495 148.399 L 9.495 148.399 Q 52.359 144.33 93.867 131.715 L 93.867 131.715 L 93.867 131.715 Q 135.374 119.1 174.168 101.195 L 174.168 101.195 L 188.276 101.195 L 188.276 101.195 Q 189.632 103.365 188.411 105.807 L 188.411 105.807 L 188.411 105.807 Q 187.19 108.248 185.02 110.283 L 185.02 110.283 L 185.02 110.283 Q 182.85 112.318 180.679 113.945 L 180.679 113.945 L 178.78 115.302 L 113.128 138.904 L 113.128 138.904 Q 112.857 138.904 112.721 145.415 L 112.721 145.415 L 112.721 145.415 Q 112.586 151.926 112.586 160.879 L 112.586 160.879 L 112.586 160.879 Q 112.586 169.831 112.721 179.462 L 112.721 179.462 L 112.721 179.462 Q 112.857 189.093 113.128 195.333 L 113.128 195.333 L 113.128 195.333 Q 113.128 197.503 113.535 204.828 L 113.535 204.828 L 113.535 204.828 Q 113.942 212.153 114.349 221.783 L 114.349 221.783 L 114.349 221.783 Q 114.756 231.414 115.298 242.266 L 115.298 242.266 L 115.298 242.266 Q 115.841 253.117 116.384 262.884 L 116.384 262.884 L 116.384 262.884 Q 116.926 272.65 117.197 279.84 L 117.197 279.84 L 117.197 279.84 Q 117.469 287.029 117.74 289.47 L 117.74 289.47 L 117.74 289.47 Q 117.74 294.082 115.163 297.88 L 115.163 297.88 L 115.163 297.88 Q 112.586 301.678 109.33 303.035 L 109.33 303.035 L 109.33 303.035 Q 106.075 304.391 102.955 302.628 L 102.955 302.628 L 102.955 302.628 Q 99.835 300.865 99.021 294.082 Z  M 289.467 303.578 L 284.855 298.966 L 284.855 298.966 Q 284.584 298.694 284.448 294.354 L 284.448 294.354 L 284.448 294.354 Q 284.312 290.013 284.312 283.909 L 284.312 283.909 L 284.312 283.909 Q 284.312 277.805 284.448 271.43 L 284.448 271.43 L 284.448 271.43 Q 284.584 265.054 284.855 260.985 L 284.855 260.985 L 284.855 260.985 Q 284.855 260.442 285.669 254.881 L 285.669 254.881 L 285.669 254.881 Q 286.483 249.319 287.568 241.723 L 287.568 241.723 L 287.568 241.723 Q 288.653 234.127 289.196 226.395 L 289.196 226.395 L 289.196 226.395 Q 289.738 218.664 289.467 214.052 L 289.467 214.052 L 289.467 214.052 Q 288.924 213.78 287.161 213.78 L 287.161 213.78 L 287.161 213.78 Q 285.398 213.78 284.855 214.052 L 284.855 214.052 L 284.855 214.052 Q 282.685 214.866 277.259 217.578 L 277.259 217.578 L 277.259 217.578 Q 271.833 220.291 265.865 223.411 L 265.865 223.411 L 265.865 223.411 Q 259.896 226.531 254.47 229.244 L 254.47 229.244 L 254.47 229.244 Q 249.045 231.957 247.146 233.042 L 247.146 233.042 L 247.146 233.042 Q 240.635 229.787 241.584 225.988 L 241.584 225.988 L 241.584 225.988 Q 242.534 222.19 247.824 218.257 L 247.824 218.257 L 247.824 218.257 Q 253.114 214.323 261.388 209.982 L 261.388 209.982 L 261.388 209.982 Q 269.663 205.642 277.666 201.03 L 277.666 201.03 L 277.666 201.03 Q 285.669 196.418 291.773 191.399 L 291.773 191.399 L 291.773 191.399 Q 297.877 186.38 298.962 180.954 L 298.962 180.954 L 317.952 91.7 L 317.952 91.7 Q 318.766 88.173 317.41 85.867 L 317.41 85.867 L 317.41 85.867 Q 316.053 83.561 313.747 82.476 L 313.747 82.476 L 313.747 82.476 Q 311.441 81.391 308.593 81.391 L 308.593 81.391 L 308.593 81.391 Q 305.744 81.391 303.845 82.205 L 303.845 82.205 L 303.845 82.205 Q 300.047 83.561 293.943 86.41 L 293.943 86.41 L 293.943 86.41 Q 287.839 89.258 281.735 92.242 L 281.735 92.242 L 281.735 92.242 Q 275.631 95.226 271.019 97.804 L 271.019 97.804 L 271.019 97.804 Q 266.407 100.381 265.865 101.195 L 265.865 101.195 L 204.824 166.847 L 204.824 166.847 Q 202.383 169.831 200.755 168.746 L 200.755 168.746 L 200.755 168.746 Q 199.127 167.661 198.449 164.812 L 198.449 164.812 L 198.449 164.812 Q 197.771 161.964 198.178 158.437 L 198.178 158.437 L 198.178 158.437 Q 198.585 154.91 200.212 153.011 L 200.212 153.011 L 200.212 153.011 Q 201.84 150.57 205.503 145.686 L 205.503 145.686 L 205.503 145.686 Q 209.165 140.803 213.777 134.835 L 213.777 134.835 L 213.777 134.835 Q 218.389 128.866 223.543 122.084 L 223.543 122.084 L 223.543 122.084 Q 228.698 115.302 233.31 109.334 L 233.31 109.334 L 233.31 109.334 Q 237.922 103.365 241.584 98.618 L 241.584 98.618 L 241.584 98.618 Q 245.247 93.87 247.146 91.7 L 247.146 91.7 L 247.146 91.7 Q 257.997 90.615 267.628 85.46 L 267.628 85.46 L 267.628 85.46 Q 277.259 80.305 286.754 75.287 L 286.754 75.287 L 286.754 75.287 Q 296.249 70.268 306.151 67.555 L 306.151 67.555 L 306.151 67.555 Q 316.053 64.842 327.448 68.369 L 327.448 68.369 L 327.448 68.369 Q 333.687 74.608 335.179 83.561 L 335.179 83.561 L 335.179 83.561 Q 336.671 92.514 335.179 102.958 L 335.179 102.958 L 335.179 102.958 Q 333.687 113.403 330.296 124.526 L 330.296 124.526 L 330.296 124.526 Q 326.905 135.649 323.785 146.093 L 323.785 146.093 L 323.785 146.093 Q 320.665 156.538 318.631 165.626 L 318.631 165.626 L 318.631 165.626 Q 316.596 174.715 317.952 180.954 L 317.952 180.954 L 317.952 180.954 Q 324.463 183.125 330.703 180.547 L 330.703 180.547 L 330.703 180.547 Q 336.943 177.97 343.318 174.308 L 343.318 174.308 L 343.318 174.308 Q 349.693 170.645 356.204 167.797 L 356.204 167.797 L 356.204 167.797 Q 362.715 164.948 369.498 166.847 L 369.498 166.847 L 369.498 166.847 Q 370.854 170.645 368.548 174.715 L 368.548 174.715 L 368.548 174.715 Q 366.242 178.784 364.886 180.954 L 364.886 180.954 L 364.886 180.954 Q 362.173 181.768 355.391 184.345 L 355.391 184.345 L 355.391 184.345 Q 348.608 186.923 341.148 190.042 L 341.148 190.042 L 341.148 190.042 Q 333.687 193.162 327.041 195.875 L 327.041 195.875 L 327.041 195.875 Q 320.394 198.588 317.952 199.945 L 317.952 199.945 L 317.952 199.945 Q 317.139 200.487 315.782 201.708 L 315.782 201.708 L 315.782 201.708 Q 314.426 202.929 312.798 204.421 L 312.798 204.421 L 312.798 204.421 Q 311.17 205.913 309.949 207.269 L 309.949 207.269 L 309.949 207.269 Q 308.729 208.626 308.457 209.44 L 308.457 209.44 L 308.457 209.44 Q 307.643 212.967 306.287 221.648 L 306.287 221.648 L 306.287 221.648 Q 304.93 230.329 303.303 239.96 L 303.303 239.96 L 303.303 239.96 Q 301.675 249.591 300.454 258.272 L 300.454 258.272 L 300.454 258.272 Q 299.233 266.953 298.962 270.48 L 298.962 270.48 L 298.962 270.48 Q 298.42 274.007 299.098 279.026 L 299.098 279.026 L 299.098 279.026 Q 299.776 284.045 299.64 288.928 L 299.64 288.928 L 299.64 288.928 Q 299.505 293.811 297.47 297.88 L 297.47 297.88 L 297.47 297.88 Q 295.435 301.95 289.467 303.578 L 289.467 303.578 Z " fill-rule="evenodd" fill="rgb(255,255,255)"/></g></svg>